<svg width="11" height="11" viewBox="0 0 11 11" fill="none" xmlns="http://www.w3.org/2000/svg">
<path d="M4.00764 6.06852C4.00764 5.93073 3.89587 5.81909 3.75796 5.81909H2.88669C2.74894 5.81909 2.63715 5.93073 2.63715 6.06852V6.93968C2.63715 7.07766 2.74894 7.18934 2.88669 7.18934H3.75796C3.89587 7.18934 4.00764 7.07766 4.00764 6.93968V6.06852Z" fill="white"/>
<path d="M6.18525 6.06852C6.18525 5.93073 6.07345 5.81909 5.93582 5.81909H5.06442C4.92667 5.81909 4.81488 5.93073 4.81488 6.06852V6.93968C4.81488 7.07766 4.92667 7.18934 5.06442 7.18934H5.93582C6.07345 7.18934 6.18525 7.07766 6.18525 6.93968V6.06852Z" fill="white"/>
<path d="M8.36256 6.06852C8.36256 5.93073 8.25077 5.81909 8.11302 5.81909H7.24174C7.10383 5.81909 6.99207 5.93073 6.99207 6.06852V6.93968C6.99207 7.07766 7.10383 7.18934 7.24174 7.18934H8.11302C8.25077 7.18934 8.36256 7.07766 8.36256 6.93968V6.06852Z" fill="white"/>
<path d="M4.00764 8.24639C4.00764 8.10837 3.89587 7.99683 3.75796 7.99683H2.88669C2.74894 7.99683 2.63715 8.10837 2.63715 8.24639V9.1174C2.63715 9.25528 2.74894 9.36694 2.88669 9.36694H3.75796C3.89587 9.36694 4.00764 9.25526 4.00764 9.1174V8.24639Z" fill="white"/>
<path d="M6.18525 8.24639C6.18525 8.10837 6.07345 7.99683 5.93582 7.99683H5.06442C4.92667 7.99683 4.81488 8.10837 4.81488 8.24639V9.1174C4.81488 9.25528 4.92667 9.36694 5.06442 9.36694H5.93582C6.07345 9.36694 6.18525 9.25526 6.18525 9.1174V8.24639Z" fill="white"/>
<path d="M8.36256 8.24639C8.36256 8.10837 8.25077 7.99683 8.11313 7.99683H7.24174C7.10383 7.99683 6.99207 8.10837 6.99207 8.24639V9.1174C6.99207 9.25528 7.10383 9.36694 7.24174 9.36694H8.11313C8.25077 9.36694 8.36256 9.25526 8.36256 9.1174V8.24639Z" fill="white"/>
<path d="M9.92056 1.22475V2.55538C9.92056 3.15681 9.43266 3.64147 8.83132 3.64147H8.14419C7.5428 3.64147 7.04843 3.15681 7.04843 2.55538V1.21997H3.95136V2.55538C3.95136 3.15681 3.45701 3.64147 2.85571 3.64147H2.16845C1.56713 3.64147 1.07925 3.15681 1.07925 2.55538V1.22475C0.55369 1.24059 0.121826 1.67547 0.121826 2.21V10.0081C0.121826 10.5527 0.563221 11 1.1078 11H9.89199C10.4358 11 10.878 10.5518 10.878 10.0081V2.21C10.878 1.67547 10.4461 1.24059 9.92056 1.22475ZM9.60141 9.52252C9.60141 9.75787 9.41059 9.9488 9.17516 9.9488H1.80586C1.57042 9.9488 1.3796 9.75787 1.3796 9.52252V5.49451C1.3796 5.25907 1.5704 5.06814 1.80586 5.06814H9.17514C9.41057 5.06814 9.60139 5.25907 9.60139 5.49451L9.60141 9.52252Z" fill="white"/>
<path d="M2.16587 2.92818H2.84553C3.05183 2.92818 3.2191 2.76115 3.2191 2.55486V0.373455C3.2191 0.167134 3.05183 0 2.84553 0H2.16587C1.95954 0 1.7923 0.167134 1.7923 0.373455V2.55486C1.7923 2.76115 1.95954 2.92818 2.16587 2.92818Z" fill="white"/>
<path d="M8.13551 2.92818H8.81518C9.02134 2.92818 9.18861 2.76115 9.18861 2.55486V0.373455C9.18863 0.167134 9.02136 0 8.81518 0H8.13551C7.92923 0 7.76196 0.167134 7.76196 0.373455V2.55486C7.76196 2.76115 7.92923 2.92818 8.13551 2.92818Z" fill="white"/>
</svg>
