<svg width="36" height="36" viewBox="0 0 36 36" fill="none" xmlns="http://www.w3.org/2000/svg">
<g clip-path="url(#clip0)">
<path d="M32.4451 6.20009L21.4549 0.248827C20.4123 -0.315891 18.9788 0.118508 18.4141 1.16106L11.985 13.107H4.1658C3.16668 13.107 2.38477 13.8889 2.38477 14.8881V18.0157V34.2188C2.38477 35.2179 3.16668 35.9998 4.1658 35.9998H29.1437C30.1428 35.9998 30.9247 35.2179 30.9247 34.2188V29.7011H31.6632C32.0542 29.7011 32.3582 29.397 32.3582 29.006V23.8367C32.3582 23.4457 32.0542 23.1416 31.6632 23.1416H30.9247V18.0592C30.9247 17.2338 30.3166 16.4953 29.5347 16.3216L33.3574 9.24088C33.9221 8.15488 33.5311 6.80825 32.4451 6.20009ZM24.626 3.55026L17.7625 16.2781H15.8077L23.149 2.76834L24.626 3.55026ZM19.6738 1.81266C19.891 1.4217 20.4123 1.24794 20.8033 1.46514L21.8893 2.0733L14.2438 16.2781H11.8546L19.6738 1.81266ZM3.7314 14.8446C3.7314 14.7143 3.90516 14.4971 4.12236 14.4971H11.2031L10.2474 16.2347H4.12236C3.99204 16.2347 3.86172 16.2347 3.7314 16.2781V14.8446ZM29.4912 34.2188C29.4912 34.436 29.3175 34.6098 29.1003 34.6098H4.12236C3.90516 34.6098 3.7314 34.436 3.7314 34.2188V18.0592C3.7314 17.842 3.90516 17.6682 4.12236 17.6682H10.6818H13.4619H18.5444H28.3183H29.0568C29.274 17.6682 29.4478 17.842 29.4478 18.0592V23.1416H26.798C25.6251 23.1416 24.7128 24.0973 24.7128 25.2268V27.6159C24.7128 28.7888 25.6685 29.7011 26.798 29.7011H29.4912V34.2188ZM30.8813 24.5317H30.9247V28.311H30.8813H26.798C26.407 28.311 26.1029 28.0069 26.1029 27.6159V25.2268C26.1029 24.8358 26.407 24.5317 26.798 24.5317H30.8813ZM32.0976 8.54584L27.9274 16.2781H19.3263L25.8423 4.2453L31.7501 7.45985C32.1845 7.63361 32.3148 8.15488 32.0976 8.54584Z" fill="#339999"/>
<path d="M29.448 7.8945L29.1005 7.72074C28.2317 7.2429 27.0588 7.59042 26.581 8.45921L26.1466 9.28457C25.9294 9.71897 25.8425 10.2402 26.0163 10.7181C26.1466 11.1959 26.4941 11.5869 26.9285 11.8041L27.276 11.9778C27.5367 12.1082 27.8407 12.195 28.1448 12.195C28.8399 12.195 29.448 11.8041 29.7955 11.2394L30.2299 10.414C30.6643 9.50177 30.3168 8.37233 29.448 7.8945ZM28.9702 9.76241L28.5358 10.5878C28.4055 10.805 28.1014 10.8918 27.8842 10.7615L27.5367 10.5443C27.4498 10.5009 27.3629 10.3706 27.3195 10.2837C27.276 10.1534 27.276 10.023 27.3629 9.93616L27.7973 9.11081C27.8842 8.98049 28.0579 8.85017 28.2317 8.85017C28.3186 8.85017 28.362 8.85017 28.4489 8.89361L28.7964 9.06737C28.9702 9.24113 29.0571 9.50177 28.9702 9.76241Z" fill="#339999"/>
</g>
<defs>
<clipPath id="clip0">
<rect width="36" height="36" fill="white"/>
</clipPath>
</defs>
</svg>
