<svg width="18" height="14" viewBox="0 0 18 14" fill="none" xmlns="http://www.w3.org/2000/svg">
<path d="M17.712 1.82249L17.1224 1.23288C16.9371 1.04747 16.6901 0.945465 16.4264 0.945465C16.1627 0.945465 15.9155 1.04747 15.7302 1.23288L7.44541 9.51756L2.26917 4.34117C2.0839 4.15605 1.83673 4.0539 1.57302 4.0539C1.30946 4.0539 1.06244 4.15605 0.877024 4.34117L0.287268 4.93064C0.101854 5.11634 0 5.36366 0 5.62707C0 5.89064 0.101854 6.13781 0.287268 6.32322L6.13156 12.1672C6.13932 12.1782 6.14751 12.1884 6.15702 12.1978L6.74678 12.7778C6.93205 12.9624 7.17922 13.0548 7.44498 13.0548H7.44805C7.7119 13.0548 7.95907 12.9624 8.14405 12.7778L8.73395 12.1927C8.74346 12.1833 8.75151 12.1756 8.75634 12.1677L17.7119 3.21303C18.096 2.82976 18.096 2.2062 17.712 1.82249Z" fill="white"/>
</svg>
