<svg width="15" height="15" viewBox="0 0 15 15" fill="none" xmlns="http://www.w3.org/2000/svg">
<path fill-rule="evenodd" clip-rule="evenodd" d="M8.51735 7.49988L14.7893 1.22805C15.0702 0.947104 15.0702 0.49165 14.7893 0.210707C14.5083 -0.0702357 14.0529 -0.0702357 13.7719 0.210707L7.5 6.48254L1.22807 0.211666C0.947119 -0.0692769 0.491658 -0.0692769 0.210711 0.211666C-0.0702368 0.492609 -0.0702368 0.948062 0.210711 1.22901L6.48264 7.50084L0.211669 13.7717C-0.069278 14.0527 -0.069278 14.5081 0.211669 14.7891C0.352622 14.929 0.535766 15 0.719868 15C0.90397 15 1.08807 14.93 1.22807 14.7891L7.5 8.51722L13.7719 14.7891C13.9129 14.929 14.096 15 14.2801 15C14.4642 15 14.6483 14.93 14.7883 14.7891C15.0693 14.5081 15.0693 14.0527 14.7883 13.7717L8.51735 7.49988Z" fill="#EC6969"/>
</svg>
