<svg width="67" height="92" viewBox="0 0 67 92" fill="none" xmlns="http://www.w3.org/2000/svg">
<path d="M16.8472 35.9096C15.4204 36.0504 14.0046 35.5484 12.9782 34.5383C12.3027 33.6192 12.0079 32.4707 12.1551 31.3361C12.2278 30.8267 11.8836 30.3523 11.3809 30.2688C10.8782 30.1853 10.4016 30.5231 10.3088 31.0288C10.073 32.7056 10.5172 34.4073 11.5404 35.7491C12.682 37.1098 14.468 37.7996 16.8472 37.7996C17.3641 37.7996 17.7832 37.3765 17.7832 36.8546C17.7832 36.3328 17.3641 35.9096 16.8472 35.9096Z" fill="#59515A"/>
<path d="M21.5272 35.9092H20.5912C20.0744 35.9092 19.6553 36.3324 19.6553 36.8542C19.6553 37.3761 20.0744 37.7992 20.5912 37.7992H21.5272C22.0441 37.7992 22.4632 37.3761 22.4632 36.8542C22.4632 36.3324 22.0441 35.9092 21.5272 35.9092Z" fill="#59515A"/>
<path d="M39.3102 22.6796C40.737 22.5389 42.1528 23.0409 43.1793 24.0509C43.8547 24.9701 44.1495 26.1186 44.0023 27.2532C43.9201 27.7667 44.2642 28.2508 44.7724 28.3361C44.8231 28.3454 44.8743 28.3495 44.926 28.3495C45.383 28.349 45.7723 28.0154 45.8477 27.5605C46.0836 25.8842 45.6398 24.1824 44.617 22.8402C43.4754 21.4795 41.6894 20.7897 39.3102 20.7897C38.7934 20.7897 38.3743 21.2128 38.3743 21.7346C38.3743 22.2565 38.7934 22.6796 39.3102 22.6796Z" fill="#59515A"/>
<path d="M36.5025 21.7346C36.5025 21.2128 36.0834 20.7897 35.5666 20.7897H34.6306C34.1137 20.7897 33.6946 21.2128 33.6946 21.7346C33.6946 22.2565 34.1137 22.6796 34.6306 22.6796H35.5666C36.0834 22.6796 36.5025 22.2565 36.5025 21.7346Z" fill="#59515A"/>
<path d="M4.67979 17.9549C7.26418 17.9549 9.35957 15.8393 9.35957 13.23C9.35957 10.6207 7.26418 8.5051 4.67979 8.5051C2.09539 8.5051 0 10.6207 0 13.23C0.00319908 15.8384 2.09631 17.9517 4.67979 17.9549ZM4.67979 10.3951C6.23042 10.3951 7.48766 11.6644 7.48766 13.23C7.48766 14.7956 6.23042 16.065 4.67979 16.065C3.12915 16.065 1.87191 14.7956 1.87191 13.23C1.87191 11.6644 3.12915 10.3951 4.67979 10.3951Z" fill="#59515A"/>
<path d="M25.2708 11.3397C25.2708 13.4272 26.9471 15.1196 29.0146 15.1196C31.0821 15.1196 32.7584 13.4272 32.7584 11.3397C32.7584 9.25227 31.0821 7.55979 29.0146 7.55979C26.9471 7.55979 25.2708 9.25227 25.2708 11.3397ZM30.8865 11.3397C30.8865 12.3834 30.0483 13.2297 29.0146 13.2297C27.9808 13.2297 27.1427 12.3834 27.1427 11.3397C27.1427 10.296 27.9808 9.44976 29.0146 9.44976C30.0483 9.44976 30.8865 10.296 30.8865 11.3397Z" fill="#59515A"/>
<path d="M11.2314 6.61487C11.2314 10.2684 14.1645 13.2297 17.7831 13.2297C21.4017 13.2297 24.3348 10.2684 24.3348 6.61487C24.3348 2.96137 21.4017 0 17.7831 0C14.1663 0.00415275 11.2355 2.96322 11.2314 6.61487ZM22.4629 6.61487C22.4629 9.22418 20.3675 11.3398 17.7831 11.3398C15.1987 11.3398 13.1033 9.22418 13.1033 6.61487C13.1033 4.00556 15.1987 1.88996 17.7831 1.88996C20.3666 1.89319 22.4597 4.00648 22.4629 6.61487Z" fill="#59515A"/>
<path d="M16.8409 7.26335C16.6649 6.85084 16.6503 6.38665 16.8007 5.964C16.9625 5.46797 16.696 4.93365 16.2047 4.76985C15.7139 4.60651 15.1842 4.87551 15.022 5.37154C14.682 6.36543 14.7903 7.45991 15.319 8.36613C15.9072 9.12332 16.8336 9.53075 17.7832 9.45C18.3001 9.45 18.7192 9.02688 18.7192 8.50502C18.7192 7.98316 18.3001 7.56004 17.7832 7.56004C17.4419 7.60018 17.0991 7.49221 16.8409 7.26335Z" fill="#59515A"/>
<path d="M50.5418 34.0194C50.2031 34.0217 49.8654 34.0559 49.5327 34.1214C49.5784 33.7744 49.6026 33.4247 49.6058 33.0744V25.5146C49.6008 20.8197 45.8323 17.0148 41.1822 17.0098H14.9754C10.3253 17.0148 6.55679 20.8197 6.55176 25.5146V33.0744C6.55679 37.7694 10.3253 41.5742 14.9754 41.5793H30.2784C31.0708 43.8425 33.1891 45.3564 35.5664 45.3592C36.3827 45.3601 37.1893 45.1765 37.926 44.8217C38.8231 46.8717 40.8339 48.1942 43.0541 48.1942C45.2743 48.1942 47.2851 46.8717 48.1822 44.8217C48.9189 45.1765 49.7255 45.3601 50.5418 45.3592C53.643 45.3592 56.1575 42.8205 56.1575 39.6893C56.1575 36.5581 53.643 34.0194 50.5418 34.0194ZM29.9507 39.6893H14.9754C11.3586 39.6852 8.42779 36.7261 8.42367 33.0744V25.5146C8.42779 21.8629 11.3586 18.9039 14.9754 18.8997H41.1822C44.799 18.9039 47.7298 21.8629 47.7339 25.5146V33.0744C47.7339 33.2793 47.7097 33.4809 47.6918 33.6831C46.5539 31.9735 44.5851 31.0248 42.5532 31.2066C40.5213 31.3884 38.7481 32.6726 37.926 34.557C37.1893 34.2021 36.3827 34.0185 35.5664 34.0194C32.4661 34.0227 29.9539 36.5591 29.9507 39.6893ZM50.5418 43.4692C49.6999 43.466 48.8846 43.1721 48.2307 42.6368C47.9738 42.4329 47.6301 42.3794 47.3244 42.4952C47.0182 42.611 46.7943 42.8796 46.7335 43.2039C46.4113 44.9975 44.8643 46.3014 43.0587 46.3014C41.2535 46.3014 39.7065 44.9975 39.3843 43.2039C39.3231 42.8796 39.0991 42.611 38.7934 42.4952C38.4872 42.3794 38.1435 42.4329 37.8867 42.6368C37.2304 43.1739 36.4115 43.4679 35.5664 43.4692C33.4989 43.4692 31.8226 41.7768 31.8226 39.6893C31.8226 37.6019 33.4989 35.9094 35.5664 35.9094C36.4083 35.9126 37.2236 36.2065 37.8775 36.7418C38.1344 36.9457 38.4781 36.9993 38.7838 36.8834C39.09 36.7676 39.3139 36.4991 39.3747 36.1747C39.6969 34.3812 41.2439 33.0772 43.0495 33.0772C44.8547 33.0772 46.4017 34.3812 46.7239 36.1747C46.7851 36.4991 47.0091 36.7676 47.3148 36.8834C47.621 36.9993 47.9647 36.9457 48.2215 36.7418C48.8778 36.2047 49.6967 35.9108 50.5418 35.9094C52.6093 35.9094 54.2856 37.6019 54.2856 39.6893C54.2856 41.7768 52.6093 43.4692 50.5418 43.4692Z" fill="#59515A"/>
<path d="M46.345 64C48.9294 64 51.0248 61.8844 51.0248 59.2751C51.0248 56.6658 48.9294 54.5502 46.345 54.5502C43.7606 54.5502 41.6652 56.6658 41.6652 59.2751C41.6684 61.8835 43.7615 63.9968 46.345 64ZM46.345 56.4401C47.8956 56.4401 49.1529 57.7095 49.1529 59.2751C49.1529 60.8407 47.8956 62.11 46.345 62.11C44.7943 62.11 43.5371 60.8407 43.5371 59.2751C43.5371 57.7095 44.7943 56.4401 46.345 56.4401Z" fill="#59515A"/>
<path d="M52.8966 52.66C52.8966 56.3134 55.8297 59.2748 59.4483 59.2748C63.0669 59.2748 66 56.3134 66 52.66C66 49.0065 63.0669 46.0451 59.4483 46.0451C55.8315 46.0492 52.9007 49.0083 52.8966 52.66ZM64.1281 52.66C64.1281 55.2693 62.0327 57.3849 59.4483 57.3849C56.8639 57.3849 54.7685 55.2693 54.7685 52.66C54.7685 50.0506 56.8639 47.935 59.4483 47.935C62.0318 47.9383 64.1249 50.0516 64.1281 52.66Z" fill="#59515A"/>
<path d="M58.5061 53.3084C58.3301 52.8959 58.3155 52.4317 58.4659 52.0091C58.6277 51.5131 58.3612 50.9787 57.8699 50.8149C57.3791 50.6516 56.8494 50.9206 56.6872 51.4166C56.3472 52.4105 56.4555 53.505 56.9842 54.4112C57.5724 55.1684 58.4988 55.5758 59.4484 55.4951C59.9653 55.4951 60.3844 55.072 60.3844 54.5501C60.3844 54.0282 59.9653 53.6051 59.4484 53.6051C59.1071 53.6453 58.7643 53.5373 58.5061 53.3084Z" fill="#59515A"/>
<path d="M37 88C37 90.2091 35.2091 92 33 92C30.7909 92 29 90.2091 29 88C29 85.7909 30.7909 84 33 84C35.2091 84 37 85.7909 37 88Z" fill="#59515A"/>
</svg>
