<svg width="59" height="55" viewBox="0 0 59 55" fill="none" xmlns="http://www.w3.org/2000/svg">
<path d="M2.2783 2.97337C5.31115 -0.0594832 10.2461 -0.0594832 13.2789 2.97337C14.7482 4.44238 15.5572 6.39606 15.5572 8.47374C15.5572 9.50785 15.3566 10.5109 14.9741 11.4391L29.4999 29.3993L44.0259 11.4391C43.6434 10.5109 43.4428 9.50785 43.4428 8.47374C43.4428 6.39606 44.2518 4.44249 45.7211 2.97349C48.7539 -0.0593678 53.6888 -0.0593678 56.7217 2.97349C58.1909 4.44261 59 6.39618 59 8.47374C59 10.5514 58.1909 12.5048 56.7217 13.974C55.2525 15.443 53.2991 16.2523 51.2214 16.2523C49.1438 16.2523 47.1902 15.443 45.7212 13.974C45.5429 13.7957 45.3749 13.61 45.2164 13.4182L30.3414 31.8097C30.3397 31.8118 30.3381 31.8138 30.3365 31.8158L26.6748 36.3431L42.5123 19.2854C42.92 18.8464 43.6064 18.8208 44.0456 19.2286C44.4847 19.6363 44.5101 20.3227 44.1024 20.762L32.5648 33.1886L47.7629 51.9799C48.2479 52.5797 48.1713 53.4453 47.5885 53.9506C47.3179 54.185 46.9861 54.3006 46.6556 54.3006C46.274 54.3006 45.8943 54.1467 45.6129 53.8438L29.5 36.4895L13.3869 53.8439C13.1057 54.1469 12.7259 54.3008 12.3442 54.3008C12.0136 54.3007 11.6817 54.1852 11.4112 53.9506C10.8283 53.4453 10.7518 52.5797 11.2369 51.9799L26.4351 33.1886L10.3172 15.829C9.51099 16.1065 8.65617 16.2524 7.77843 16.2524C5.70065 16.2524 3.74719 15.4431 2.27818 13.9741C0.809055 12.5049 0 10.5514 0 8.47374C0 6.39618 0.809059 4.44261 2.2783 2.97337ZM46.2501 11.0743C46.2551 11.0835 46.2593 11.0927 46.2641 11.1019C46.5228 11.5883 46.855 12.039 47.2555 12.4396C48.3149 13.499 49.7234 14.0824 51.2214 14.0824C52.7196 14.0824 54.128 13.499 55.1874 12.4396C56.2466 11.3804 56.83 9.97202 56.83 8.47385C56.83 6.97569 56.2466 5.56718 55.1874 4.50795C54.0939 3.41449 52.6576 2.8677 51.2214 2.8677C49.7853 2.8677 48.349 3.41437 47.2555 4.50772C46.1962 5.56707 45.6129 6.97569 45.6129 8.47385C45.6126 9.39469 45.834 10.2815 46.2501 11.0743ZM32.3252 36.3431L31.0732 34.795L30.9806 34.8947L32.3252 36.3431ZM27.8138 31.4841L28.1045 31.1246L13.7839 13.4183C13.6253 13.6102 13.4572 13.796 13.279 13.9741C12.9777 14.2754 12.6548 14.5475 12.3159 14.792L27.8138 31.4841ZM3.81264 12.4396C4.87199 13.499 6.28051 14.0824 7.77855 14.0824C8.60386 14.0824 9.40163 13.9045 10.1292 13.5682C10.1405 13.5627 10.152 13.5581 10.1634 13.553C10.7434 13.2804 11.278 12.9062 11.7446 12.4395C12.1451 12.039 12.4775 11.5883 12.736 11.1018C12.7407 11.0927 12.745 11.0832 12.7499 11.0742C13.166 10.2813 13.3872 9.39458 13.3872 8.47362C13.3872 6.97546 12.8038 5.56695 11.7446 4.50749C9.55766 2.3208 5.99956 2.32103 3.81264 4.50749C2.75329 5.56684 2.16998 6.97546 2.16998 8.47362C2.16998 9.9719 2.75318 11.3804 3.81264 12.4396Z" fill="#59515A"/>
</svg>
