<svg width="29" height="29" viewBox="0 0 29 29" fill="none" xmlns="http://www.w3.org/2000/svg">
<path d="M23.7833 12.6379H23.3569V8.85978C23.3569 3.97639 19.3865 0 14.4971 0C9.61369 0 5.6373 3.97038 5.6373 8.85978C5.6373 9.31027 5.9977 9.67067 6.4482 9.67067C6.89869 9.67067 7.25909 9.31027 7.25909 8.85978C7.25909 4.87138 10.5027 1.62179 14.4971 1.62179C18.4855 1.62179 21.7351 4.86537 21.7351 8.85978V12.6379H5.21684C4.35188 12.6379 3.64911 13.3407 3.64911 14.2057V24.3028C3.64911 26.8917 5.75744 29 8.34629 29H20.6539C23.2427 29 25.3511 26.8917 25.3511 24.3028V14.2057C25.3511 13.3407 24.6483 12.6379 23.7833 12.6379ZM23.7293 24.3028C23.7293 25.9967 22.3537 27.3782 20.6539 27.3782H8.3523C6.65843 27.3782 5.2769 26.0027 5.2769 24.3028V14.2597H23.7293V24.3028Z" fill="white"/>
<path d="M23.7833 12.6379H23.3569V8.85978C23.3569 3.97639 19.3865 0 14.4971 0C9.61369 0 5.6373 3.97038 5.6373 8.85978C5.6373 9.31027 5.9977 9.67067 6.4482 9.67067C6.89869 9.67067 7.25909 9.31027 7.25909 8.85978C7.25909 4.87138 10.5027 1.62179 14.4971 1.62179C18.4855 1.62179 21.7351 4.86537 21.7351 8.85978V12.6379H5.21684C4.35188 12.6379 3.64911 13.3407 3.64911 14.2057V24.3028C3.64911 26.8917 5.75744 29 8.34629 29H20.6539C23.2427 29 25.3511 26.8917 25.3511 24.3028V14.2057C25.3511 13.3407 24.6483 12.6379 23.7833 12.6379ZM23.7293 24.3028C23.7293 25.9967 22.3537 27.3782 20.6539 27.3782H8.3523C6.65843 27.3782 5.2769 26.0027 5.2769 24.3028V14.2597H23.7293V24.3028Z" fill="#59515A"/>
<path d="M14.5029 23.9724C16.1787 23.9724 17.5362 22.6089 17.5362 20.939C17.5362 19.2632 16.1727 17.9057 14.5029 17.9057C12.827 17.9057 11.4695 19.2692 11.4695 20.939C11.4695 22.6089 12.827 23.9724 14.5029 23.9724ZM14.5029 19.5215C15.2837 19.5215 15.9144 20.1582 15.9144 20.933C15.9144 21.7079 15.2837 22.3506 14.5029 22.3506C13.722 22.3506 13.0913 21.7139 13.0913 20.939C13.0913 20.1642 13.722 19.5215 14.5029 19.5215Z" fill="white"/>
<path d="M14.5029 23.9724C16.1787 23.9724 17.5362 22.6089 17.5362 20.939C17.5362 19.2632 16.1727 17.9057 14.5029 17.9057C12.827 17.9057 11.4695 19.2692 11.4695 20.939C11.4695 22.6089 12.827 23.9724 14.5029 23.9724ZM14.5029 19.5215C15.2837 19.5215 15.9144 20.1582 15.9144 20.933C15.9144 21.7079 15.2837 22.3506 14.5029 22.3506C13.722 22.3506 13.0913 21.7139 13.0913 20.939C13.0913 20.1642 13.722 19.5215 14.5029 19.5215Z" fill="#59515A"/>
</svg>
