<svg width="22" height="29" viewBox="0 0 22 29" fill="none" xmlns="http://www.w3.org/2000/svg">
<path d="M17.3511 16.3686C17.0387 16.0562 16.5322 16.0562 16.2197 16.3686L9.4009 22.9438L5.71678 19.2596C5.40437 18.9472 4.89787 18.9472 4.5854 19.2596C4.27296 19.572 4.27296 20.0785 4.5854 20.391L8.83522 24.6407C9.14753 24.9531 9.6544 24.9529 9.96659 24.6407L17.3511 17.5C17.6635 17.1876 17.6635 16.6811 17.3511 16.3686Z" fill="#339999"/>
<path d="M20.1342 12.6379H19.7077V8.85978C19.7077 3.97639 15.7374 0 10.848 0C5.96458 0 1.98819 3.97038 1.98819 8.85978C1.98819 9.31027 2.34859 9.67067 2.79909 9.67067C3.24959 9.67067 3.60998 9.31027 3.60998 8.85978C3.60998 4.87138 6.85356 1.62179 10.848 1.62179C14.8364 1.62179 18.086 4.86537 18.086 8.85978V12.6379H1.56773C0.702775 12.6379 0 13.3407 0 14.2057V24.3028C0 26.8917 2.10833 29 4.69718 29H17.0048C19.5936 29 21.7019 26.8917 21.7019 24.3028V14.2057C21.7019 13.3407 20.9992 12.6379 20.1342 12.6379ZM20.0802 24.3028C20.0802 25.9967 18.7046 27.3782 17.0048 27.3782H4.70319C3.00932 27.3782 1.6278 26.0027 1.6278 24.3028V14.2597H20.0802V24.3028Z" fill="white"/>
<path d="M20.1342 12.6379H19.7077V8.85978C19.7077 3.97639 15.7374 0 10.848 0C5.96458 0 1.98819 3.97038 1.98819 8.85978C1.98819 9.31027 2.34859 9.67067 2.79909 9.67067C3.24959 9.67067 3.60998 9.31027 3.60998 8.85978C3.60998 4.87138 6.85356 1.62179 10.848 1.62179C14.8364 1.62179 18.086 4.86537 18.086 8.85978V12.6379H1.56773C0.702775 12.6379 0 13.3407 0 14.2057V24.3028C0 26.8917 2.10833 29 4.69718 29H17.0048C19.5936 29 21.7019 26.8917 21.7019 24.3028V14.2057C21.7019 13.3407 20.9992 12.6379 20.1342 12.6379ZM20.0802 24.3028C20.0802 25.9967 18.7046 27.3782 17.0048 27.3782H4.70319C3.00932 27.3782 1.6278 26.0027 1.6278 24.3028V14.2597H20.0802V24.3028Z" fill="#59515A"/>
</svg>
