<svg width="20" height="12" viewBox="0 0 20 12" fill="none" xmlns="http://www.w3.org/2000/svg">
<path d="M10 11.4424C7.75097 11.4424 5.33047 10.5628 3.00018 8.89871C1.25817 7.65475 0.18297 6.42232 0.138042 6.37038C-0.0460139 6.15787 -0.0460139 5.84242 0.138042 5.62986C0.18297 5.57801 1.25812 4.3455 3.00018 3.10154C5.33051 1.43757 7.75102 0.557922 10 0.557922C12.249 0.557922 14.6696 1.43753 16.9998 3.10154C18.7418 4.3455 19.817 5.57797 19.862 5.62986C20.046 5.84238 20.046 6.15782 19.862 6.37038C19.817 6.42223 18.7419 7.65475 16.9998 8.89871C14.6696 10.5628 12.2491 11.4424 10 11.4424ZM1.34096 6.00019C1.77577 6.44354 2.59637 7.22316 3.67985 7.99417C5.16523 9.05114 7.46747 10.3112 10 10.3112C12.5325 10.3112 14.8348 9.05114 16.3202 7.99417C17.4035 7.22329 18.2241 6.44359 18.659 6.00019C18.2243 5.55684 17.4036 4.77722 16.3202 4.00621C14.8348 2.9492 12.5325 1.68913 10 1.68913C7.46747 1.68913 5.16523 2.9492 3.67985 4.00621C2.59651 4.77709 1.77586 5.5567 1.34096 6.00019Z" fill="#696868"/>
<path d="M10 9.5065C8.06651 9.5065 6.49353 7.93348 6.49353 6.00003C6.49353 4.06659 8.06651 2.49356 10 2.49356C10.8503 2.49356 11.6706 2.80186 12.3097 3.36172C12.5446 3.56754 12.5682 3.92483 12.3624 4.15979C12.1566 4.39475 11.7993 4.41832 11.5643 4.21255C11.1316 3.83344 10.576 3.62468 9.99996 3.62468C8.69017 3.62468 7.62461 4.69029 7.62461 6.00003C7.62461 7.30978 8.69017 8.37538 9.99996 8.37538C11.3098 8.37538 12.3753 7.30978 12.3753 6.00003C12.3753 5.68771 12.6286 5.43447 12.9409 5.43447C13.2532 5.43447 13.5064 5.68771 13.5064 6.00003C13.5065 7.93348 11.9335 9.5065 10 9.5065Z" fill="#696868"/>
<path d="M10 7.13118C9.37632 7.13118 8.8689 6.62376 8.8689 6.00005C8.8689 5.37635 9.37632 4.86893 10 4.86893C10.6238 4.86893 11.1311 5.37635 11.1311 6.00005C11.1311 6.62376 10.6238 7.13118 10 7.13118Z" fill="#696868"/>
</svg>
