<svg width="20" height="17" viewBox="0 0 20 17" fill="none" xmlns="http://www.w3.org/2000/svg">
<path d="M10 13.4425C7.75097 13.4425 5.33047 12.563 3.00018 10.8989C1.25817 9.65493 0.18297 8.42251 0.138042 8.37057C-0.0460139 8.15805 -0.0460139 7.8426 0.138042 7.63004C0.18297 7.57819 1.25812 6.34568 3.00018 5.10172C5.33051 3.43775 7.75102 2.55811 10 2.55811C12.249 2.55811 14.6696 3.43771 16.9998 5.10172C18.7418 6.34568 19.817 7.57815 19.862 7.63004C20.046 7.84256 20.046 8.15801 19.862 8.37057C19.817 8.42242 18.7419 9.65493 16.9998 10.8989C14.6696 12.5629 12.2491 13.4425 10 13.4425ZM1.34096 8.00037C1.77577 8.44373 2.59637 9.22334 3.67985 9.99436C5.16523 11.0513 7.46747 12.3114 10 12.3114C12.5325 12.3114 14.8348 11.0513 16.3202 9.99436C17.4035 9.22347 18.2241 8.44377 18.659 8.00037C18.2243 7.55702 17.4036 6.77741 16.3202 6.00639C14.8348 4.94938 12.5325 3.68932 10 3.68932C7.46747 3.68932 5.16523 4.94938 3.67985 6.00639C2.59651 6.77727 1.77586 7.55688 1.34096 8.00037Z" fill="#BABABA"/>
<path d="M9.99989 11.5067C8.06639 11.5067 6.49341 9.93366 6.49341 8.00021C6.49341 6.06677 8.06639 4.49374 9.99989 4.49374C10.8502 4.49374 11.6705 4.80204 12.3095 5.3619C12.5445 5.56772 12.5681 5.92502 12.3623 6.15997C12.1565 6.39493 11.7991 6.4185 11.5642 6.21273C11.1315 5.83362 10.5759 5.62486 9.99984 5.62486C8.69005 5.62486 7.62448 6.69047 7.62448 8.00021C7.62448 9.30996 8.69005 10.3756 9.99984 10.3756C11.3097 10.3756 12.3752 9.30996 12.3752 8.00021C12.3752 7.68789 12.6284 7.43465 12.9408 7.43465C13.2531 7.43465 13.5063 7.68789 13.5063 8.00021C13.5064 9.93366 11.9334 11.5067 9.99989 11.5067Z" fill="#BABABA"/>
<path d="M10 9.13136C9.37632 9.13136 8.8689 8.62394 8.8689 8.00024C8.8689 7.37653 9.37632 6.86911 10 6.86911C10.6238 6.86911 11.1311 7.37653 11.1311 8.00024C11.1311 8.62394 10.6238 9.13136 10 9.13136Z" fill="#BABABA"/>
<rect x="17.5566" width="1" height="22" rx="0.5" transform="rotate(45 17.5566 0)" fill="#BABABA"/>
</svg>
