<svg width="29" height="29" viewBox="0 0 29 29" fill="none" xmlns="http://www.w3.org/2000/svg">
<path d="M22.919 17.9647C22.3253 17.3465 21.6092 17.016 20.8503 17.016C20.0974 17.016 19.3752 17.3404 18.757 17.9586L16.8229 19.8866C16.6637 19.8009 16.5046 19.7213 16.3516 19.6418C16.1312 19.5316 15.9231 19.4276 15.7456 19.3174C13.9339 18.1667 12.2875 16.6671 10.7084 14.7269C9.94327 13.7598 9.42913 12.9458 9.05577 12.1195C9.55767 11.6605 10.0228 11.183 10.4758 10.724C10.6471 10.5526 10.8185 10.3751 10.9899 10.2037C12.2752 8.9184 12.2752 7.25358 10.9899 5.96825L9.31896 4.29731C9.12922 4.10757 8.93336 3.91171 8.74974 3.71585C8.3825 3.33637 7.9969 2.94465 7.59906 2.57741C7.00536 1.98983 6.29536 1.67767 5.54864 1.67767C4.80193 1.67767 4.07969 1.98983 3.46762 2.57741C3.4615 2.58353 3.4615 2.58353 3.45538 2.58965L1.37436 4.68903C0.590919 5.47248 0.144112 6.4273 0.0461817 7.53513C-0.100714 9.32236 0.425662 10.9872 0.829625 12.0767C1.82117 14.7514 3.30237 17.2302 5.51192 19.8866C8.19276 23.0877 11.4183 25.6155 15.103 27.3966C16.5107 28.0638 18.3898 28.8534 20.4891 28.988C20.6177 28.9941 20.7523 29.0002 20.8747 29.0002C22.2886 29.0002 23.476 28.4922 24.4064 27.4823C24.4125 27.4701 24.4247 27.464 24.4308 27.4517C24.7491 27.0661 25.1164 26.7172 25.502 26.3439C25.7651 26.0929 26.0345 25.8298 26.2976 25.5543C26.9036 24.9239 27.2219 24.1894 27.2219 23.4366C27.2219 22.6776 26.8975 21.9493 26.2793 21.3372L22.919 17.9647ZM25.1102 24.4098C25.1041 24.4098 25.1041 24.4159 25.1102 24.4098C24.8715 24.6668 24.6267 24.8994 24.3635 25.1565C23.9657 25.536 23.5617 25.9338 23.1822 26.3806C22.564 27.0416 21.8357 27.3538 20.8809 27.3538C20.7891 27.3538 20.6911 27.3538 20.5993 27.3477C18.7815 27.2314 17.0922 26.5214 15.8252 25.9154C12.3609 24.2384 9.31896 21.8575 6.79114 18.84C4.70399 16.3244 3.30849 13.9985 2.38427 11.5013C1.81505 9.97727 1.60695 8.78987 1.69876 7.66979C1.75996 6.95367 2.03539 6.35997 2.54341 5.85196L4.63055 3.76481C4.93046 3.48326 5.24873 3.33025 5.56089 3.33025C5.94649 3.33025 6.25864 3.56283 6.4545 3.75869C6.46062 3.76481 6.46674 3.77094 6.47286 3.77706C6.84622 4.12593 7.20122 4.48705 7.57458 4.87265C7.76432 5.06851 7.96018 5.26437 8.15604 5.46635L9.82698 7.13729C10.4758 7.78608 10.4758 8.3859 9.82698 9.03469C9.64948 9.21219 9.4781 9.38969 9.3006 9.56107C8.78647 10.0874 8.29681 10.5771 7.76432 11.0545C7.75208 11.0667 7.73984 11.0729 7.73372 11.0851C7.20734 11.6115 7.30527 12.1256 7.41544 12.4745C7.42156 12.4929 7.42768 12.5112 7.4338 12.5296C7.86837 13.5823 8.48043 14.5739 9.41077 15.7552L9.41689 15.7613C11.1062 17.8423 12.8873 19.4643 14.852 20.7068C15.103 20.8659 15.36 20.9944 15.6049 21.1169C15.8252 21.227 16.0333 21.3311 16.2108 21.4412C16.2353 21.4535 16.2598 21.4719 16.2843 21.4841C16.4924 21.5881 16.6882 21.6371 16.8902 21.6371C17.3982 21.6371 17.7165 21.3188 17.8205 21.2148L19.9138 19.1215C20.1219 18.9134 20.4524 18.6625 20.838 18.6625C21.2175 18.6625 21.5297 18.9012 21.7194 19.1093C21.7255 19.1154 21.7255 19.1154 21.7316 19.1215L25.1041 22.494C25.7345 23.1183 25.7345 23.761 25.1102 24.4098Z" fill="white"/>
<path d="M22.919 17.9647C22.3253 17.3465 21.6092 17.016 20.8503 17.016C20.0974 17.016 19.3752 17.3404 18.757 17.9586L16.8229 19.8866C16.6637 19.8009 16.5046 19.7213 16.3516 19.6418C16.1312 19.5316 15.9231 19.4276 15.7456 19.3174C13.9339 18.1667 12.2875 16.6671 10.7084 14.7269C9.94327 13.7598 9.42913 12.9458 9.05577 12.1195C9.55767 11.6605 10.0228 11.183 10.4758 10.724C10.6471 10.5526 10.8185 10.3751 10.9899 10.2037C12.2752 8.9184 12.2752 7.25358 10.9899 5.96825L9.31896 4.29731C9.12922 4.10757 8.93336 3.91171 8.74974 3.71585C8.3825 3.33637 7.9969 2.94465 7.59906 2.57741C7.00536 1.98983 6.29536 1.67767 5.54864 1.67767C4.80193 1.67767 4.07969 1.98983 3.46762 2.57741C3.4615 2.58353 3.4615 2.58353 3.45538 2.58965L1.37436 4.68903C0.590919 5.47248 0.144112 6.4273 0.0461817 7.53513C-0.100714 9.32236 0.425662 10.9872 0.829625 12.0767C1.82117 14.7514 3.30237 17.2302 5.51192 19.8866C8.19276 23.0877 11.4183 25.6155 15.103 27.3966C16.5107 28.0638 18.3898 28.8534 20.4891 28.988C20.6177 28.9941 20.7523 29.0002 20.8747 29.0002C22.2886 29.0002 23.476 28.4922 24.4064 27.4823C24.4125 27.4701 24.4247 27.464 24.4308 27.4517C24.7491 27.0661 25.1164 26.7172 25.502 26.3439C25.7651 26.0929 26.0345 25.8298 26.2976 25.5543C26.9036 24.9239 27.2219 24.1894 27.2219 23.4366C27.2219 22.6776 26.8975 21.9493 26.2793 21.3372L22.919 17.9647ZM25.1102 24.4098C25.1041 24.4098 25.1041 24.4159 25.1102 24.4098C24.8715 24.6668 24.6267 24.8994 24.3635 25.1565C23.9657 25.536 23.5617 25.9338 23.1822 26.3806C22.564 27.0416 21.8357 27.3538 20.8809 27.3538C20.7891 27.3538 20.6911 27.3538 20.5993 27.3477C18.7815 27.2314 17.0922 26.5214 15.8252 25.9154C12.3609 24.2384 9.31896 21.8575 6.79114 18.84C4.70399 16.3244 3.30849 13.9985 2.38427 11.5013C1.81505 9.97727 1.60695 8.78987 1.69876 7.66979C1.75996 6.95367 2.03539 6.35997 2.54341 5.85196L4.63055 3.76481C4.93046 3.48326 5.24873 3.33025 5.56089 3.33025C5.94649 3.33025 6.25864 3.56283 6.4545 3.75869C6.46062 3.76481 6.46674 3.77094 6.47286 3.77706C6.84622 4.12593 7.20122 4.48705 7.57458 4.87265C7.76432 5.06851 7.96018 5.26437 8.15604 5.46635L9.82698 7.13729C10.4758 7.78608 10.4758 8.3859 9.82698 9.03469C9.64948 9.21219 9.4781 9.38969 9.3006 9.56107C8.78647 10.0874 8.29681 10.5771 7.76432 11.0545C7.75208 11.0667 7.73984 11.0729 7.73372 11.0851C7.20734 11.6115 7.30527 12.1256 7.41544 12.4745C7.42156 12.4929 7.42768 12.5112 7.4338 12.5296C7.86837 13.5823 8.48043 14.5739 9.41077 15.7552L9.41689 15.7613C11.1062 17.8423 12.8873 19.4643 14.852 20.7068C15.103 20.8659 15.36 20.9944 15.6049 21.1169C15.8252 21.227 16.0333 21.3311 16.2108 21.4412C16.2353 21.4535 16.2598 21.4719 16.2843 21.4841C16.4924 21.5881 16.6882 21.6371 16.8902 21.6371C17.3982 21.6371 17.7165 21.3188 17.8205 21.2148L19.9138 19.1215C20.1219 18.9134 20.4524 18.6625 20.838 18.6625C21.2175 18.6625 21.5297 18.9012 21.7194 19.1093C21.7255 19.1154 21.7255 19.1154 21.7316 19.1215L25.1041 22.494C25.7345 23.1183 25.7345 23.761 25.1102 24.4098Z" fill="#59515A"/>
<path d="M15.6723 6.89843C17.2759 7.16774 18.7326 7.9267 19.8956 9.08962C21.0585 10.2525 21.8113 11.7093 22.0868 13.3129C22.1541 13.7168 22.503 13.9984 22.9008 13.9984C22.9498 13.9984 22.9926 13.9923 23.0416 13.9861C23.4945 13.9127 23.7944 13.4843 23.721 13.0313C23.3905 11.0911 22.4724 9.32221 21.0707 7.92058C19.6691 6.51895 17.9002 5.60085 15.96 5.27034C15.5071 5.19689 15.0847 5.4968 15.0052 5.94361C14.9256 6.39042 15.2194 6.82498 15.6723 6.89843Z" fill="white"/>
<path d="M15.6723 6.89843C17.2759 7.16774 18.7326 7.9267 19.8956 9.08962C21.0585 10.2525 21.8113 11.7093 22.0868 13.3129C22.1541 13.7168 22.503 13.9984 22.9008 13.9984C22.9498 13.9984 22.9926 13.9923 23.0416 13.9861C23.4945 13.9127 23.7944 13.4843 23.721 13.0313C23.3905 11.0911 22.4724 9.32221 21.0707 7.92058C19.6691 6.51895 17.9002 5.60085 15.96 5.27034C15.5071 5.19689 15.0847 5.4968 15.0052 5.94361C14.9256 6.39042 15.2194 6.82498 15.6723 6.89843Z" fill="#59515A"/>
<path d="M28.9664 12.7927C28.4216 9.59772 26.9159 6.69041 24.6023 4.3768C22.2887 2.0632 19.3814 0.557518 16.1864 0.0127803C15.7396 -0.0667881 15.3173 0.239244 15.2377 0.686052C15.1643 1.13898 15.4642 1.5613 15.9171 1.64087C18.7694 2.1244 21.3706 3.47707 23.4394 5.53973C25.5082 7.60851 26.8547 10.2098 27.3383 13.062C27.4056 13.466 27.7545 13.7475 28.1523 13.7475C28.2013 13.7475 28.2441 13.7414 28.2931 13.7353C28.7399 13.6679 29.0459 13.2395 28.9664 12.7927Z" fill="white"/>
<path d="M28.9664 12.7927C28.4216 9.59772 26.9159 6.69041 24.6023 4.3768C22.2887 2.0632 19.3814 0.557518 16.1864 0.0127803C15.7396 -0.0667881 15.3173 0.239244 15.2377 0.686052C15.1643 1.13898 15.4642 1.5613 15.9171 1.64087C18.7694 2.1244 21.3706 3.47707 23.4394 5.53973C25.5082 7.60851 26.8547 10.2098 27.3383 13.062C27.4056 13.466 27.7545 13.7475 28.1523 13.7475C28.2013 13.7475 28.2441 13.7414 28.2931 13.7353C28.7399 13.6679 29.0459 13.2395 28.9664 12.7927Z" fill="#59515A"/>
</svg>
