<svg width="34" height="28" viewBox="0 0 34 28" fill="none" xmlns="http://www.w3.org/2000/svg">
<path d="M30.4586 11.3902V10.667C30.4586 9.56419 29.5054 8.667 28.3336 8.667H21.25V5.33343C21.25 4.96525 20.9329 4.66675 20.5416 4.66675H18.4166V2.66706C18.4166 2.29887 18.0994 2.00037 17.7082 2.00037H8.08556L6.87604 0.862059C6.59952 0.601746 6.15101 0.601746 5.87436 0.862059L1.83168 4.66675H0.708355C0.317156 4.66681 0 4.96525 0 5.33343V24.0002C0 24.3683 0.317156 24.6669 0.708355 24.6669H3.6129C3.71948 25.1592 3.94187 25.6124 4.25186 26.0002H2.83329C2.44209 26.0002 2.125 26.2987 2.125 26.6669C2.125 27.035 2.44209 27.3336 2.83336 27.3336H7.08316C7.08495 27.3336 7.08661 27.3333 7.0884 27.3333C8.79637 27.331 10.2248 26.185 10.5535 24.6669H20.5416H23.4467C23.5533 25.1593 23.7758 25.6125 24.0857 26.0002H22.6671C22.276 26.0002 21.9588 26.2987 21.9588 26.6669C21.9588 27.0351 22.2759 27.3336 22.6671 27.3336H26.9169C26.9187 27.3336 26.9204 27.3334 26.9222 27.3334C28.6302 27.3311 30.0587 26.1851 30.3874 24.667H33.2916C33.6828 24.667 34 24.3685 34 24.0003V18.0002V15.3334C34 13.3551 32.4657 11.7087 30.4586 11.3902ZM16.9999 3.33375V4.66681H10.9187L9.50227 3.33375H16.9999ZM6.3752 2.27625L7.29081 3.13793C7.29114 3.13825 7.29154 3.13862 7.29187 3.13893L8.91524 4.66681H3.83523L6.3752 2.27625ZM7.08329 26.0001C5.91148 26.0001 4.95822 25.1029 4.95822 24.0002C4.95822 22.8973 5.91148 22.0001 7.08329 22.0001C8.25496 22.0001 9.20816 22.8973 9.20816 24.0002C9.20809 25.1029 8.25489 26.0001 7.08329 26.0001ZM19.8333 9.33368V20.6669H15.016C14.6248 20.6669 14.3076 20.9654 14.3076 21.3336C14.3076 21.7018 14.6247 22.0003 15.016 22.0003H19.8333V23.3336H10.5535C10.2245 21.8139 8.79358 20.6669 7.08329 20.6669C5.373 20.6669 3.94187 21.8139 3.61283 23.3336H1.41664V12.6669H4.24987C4.641 12.6669 4.95822 12.3685 4.95822 12.0002C4.95822 11.6321 4.64107 11.3336 4.24987 11.3336H1.41664V10.0003H9.91645C10.3076 10.0003 10.6248 9.70187 10.6248 9.33362C10.6248 8.96544 10.3077 8.66693 9.91645 8.66693H1.41664V6H2.12454C2.12493 6 2.12533 6 2.12566 6H19.8333V9.33368ZM23.4467 23.3336H21.25V22.0002H24.0856C23.7756 22.3881 23.5532 22.8412 23.4467 23.3336ZM29.0419 24.0024C29.0406 25.1042 28.0879 26.0001 26.917 26.0001C25.7453 26.0001 24.792 25.1029 24.792 24.0002C24.792 22.899 25.7423 22.003 26.9116 22.0002H26.9169C26.9176 22.0002 26.9182 22.0001 26.9188 22.0001C28.0889 22.001 29.0406 22.8967 29.0419 23.9981C29.0419 23.9988 29.0418 23.9994 29.0418 24.0002C29.0418 24.0009 29.0419 24.0016 29.0419 24.0024ZM32.5834 23.3336H30.3874C30.0583 21.8138 28.6273 20.6668 26.917 20.6668C26.9152 20.6668 26.9134 20.6669 26.9116 20.6669H21.2499V10.0004H28.3336C28.7242 10.0004 29.042 10.2994 29.042 10.6671V11.3337H24.0837C23.6926 11.3337 23.3753 11.6321 23.3753 12.0004V18.0002C23.3753 18.3684 23.6925 18.6669 24.0837 18.6669H32.5834V23.3336ZM26.2088 12.6669V17.3335H24.792V12.6669H26.2088ZM32.5834 17.3335H27.6254V12.6669H29.7503C31.3125 12.6669 32.5834 13.8631 32.5834 15.3334V17.3335Z" fill="#339999"/>
<path d="M12.2445 22H12.6866C13.0778 22 13.395 21.7015 13.395 21.3333C13.395 20.9652 13.0778 20.6667 12.6866 20.6667H12.2445C11.8533 20.6667 11.5361 20.9652 11.5361 21.3333C11.5361 21.7015 11.8534 22 12.2445 22Z" fill="#339999"/>
<path d="M12.2445 10.0002H12.6866C13.0778 10.0002 13.395 9.70178 13.395 9.33353C13.395 8.96534 13.0778 8.66684 12.6866 8.66684H12.2445C11.8533 8.66684 11.5361 8.96528 11.5361 9.33353C11.5362 9.70171 11.8534 10.0002 12.2445 10.0002Z" fill="#339999"/>
</svg>
