<svg width="70" height="70" viewBox="0 0 70 70" fill="none" xmlns="http://www.w3.org/2000/svg">
<path d="M62.7743 11.1511C61.7013 10.3864 60.3957 10.0189 59.0814 10.1115C57.767 10.2042 56.5259 10.7513 55.5708 11.659L49.6081 17.3377L49.8873 14.8247C50.0723 13.1604 49.747 11.4792 48.9546 10.004C48.1622 8.52879 46.9402 7.32925 45.4505 6.56444C43.9608 5.79962 42.2738 5.50565 40.6132 5.72149C38.9527 5.93733 37.3969 6.6528 36.1522 7.77303L32.2656 11.271C31.4056 12.046 30.7178 12.9929 30.2468 14.0505C29.7757 15.1081 29.532 16.2528 29.5312 17.4106V25.9419C29.5325 26.626 29.3187 27.2932 28.9201 27.8491L18.8399 41.9613L2.4833 59.4084C2.29326 59.6111 2.1875 59.8786 2.1875 60.1565V63.4377C2.1875 63.5814 2.21578 63.7236 2.27075 63.8563C2.32571 63.989 2.40628 64.1096 2.50784 64.2111C2.60941 64.3127 2.72998 64.3933 2.86269 64.4482C2.99539 64.5032 3.13762 64.5315 3.28125 64.5315H6.5625C6.80264 64.5315 7.03611 64.4524 7.22687 64.3066L25.7716 50.1253L40.2643 41.4296C40.6986 41.1707 41.1866 41.0151 41.6906 40.9747C42.1946 40.9343 42.7012 41.0103 43.1712 41.1967L46.6558 42.5905C48.4818 43.3236 50.4732 43.5445 52.4155 43.2293C54.3577 42.9141 56.1771 42.0749 57.6776 40.802L59.6802 39.1074C62.2306 36.9531 64.2798 34.2679 65.6844 31.2393C67.0891 28.2107 67.8154 24.9118 67.8125 21.5733V20.9414C67.8106 19.0266 67.3526 17.1399 66.4764 15.4374C65.6003 13.7349 64.3312 12.2656 62.7743 11.1511ZM30.7001 29.1206C31.3645 28.194 31.7208 27.0821 31.7188 25.9419V17.4106C31.7193 16.5594 31.8985 15.7179 32.2448 14.9404C32.591 14.1629 33.0967 13.4667 33.7289 12.8969L37.6155 9.39896C38.5306 8.57542 39.6743 8.04944 40.8952 7.89077C42.116 7.7321 43.3562 7.94823 44.4513 8.5105C45.5465 9.07277 46.4449 9.95463 47.0274 11.0392C47.61 12.1237 47.8491 13.3596 47.7132 14.5832L47.1467 19.682L36.0972 30.2053C35.7232 30.5606 35.2711 30.8232 34.7772 30.972L27.905 33.0337L30.7001 29.1206ZM6.1922 62.344H4.375V60.589L19.6393 44.3071L23.5858 49.043L6.1922 62.344ZM65.625 21.5733C65.6276 24.5939 64.9705 27.5785 63.6996 30.3187C62.4287 33.0589 60.5747 35.4884 58.2672 37.4375L56.2646 39.1321C55.0671 40.1479 53.615 40.8177 52.0649 41.0693C50.5149 41.3208 48.9255 41.1445 47.4682 40.5595L43.9836 39.1657C43.2003 38.8549 42.356 38.7282 41.516 38.7955C40.676 38.8628 39.8627 39.1223 39.1389 39.5539L25.3968 47.7991L21.0684 42.605L25.8288 35.9404L35.4058 33.0673C36.229 32.8193 36.9826 32.3816 37.6058 31.7893L57.0794 13.243C57.6659 12.6856 58.428 12.3497 59.2351 12.2928C60.0422 12.2359 60.8439 12.4616 61.5028 12.9312C62.7767 13.843 63.815 15.0452 64.5318 16.4381C65.2487 17.8311 65.6234 19.3748 65.625 20.9414V21.5733Z" fill="#59515A"/>
<path d="M54.8751 19.0468L46.5318 27.3901C45.8783 28.0436 45.3894 28.843 45.1055 29.7225C44.8216 30.602 44.7507 31.5363 44.8988 32.4486C45.0468 33.3608 45.4095 34.2248 45.9569 34.9694C46.5044 35.7139 47.221 36.3177 48.0476 36.731C49.0893 37.2559 50.265 37.4548 51.4214 37.3019C52.5778 37.1489 53.6613 36.6511 54.5308 35.8735L57.2701 33.4385C58.865 32.0198 60.1416 30.2796 61.0161 28.3324C61.8905 26.3851 62.343 24.2749 62.3437 22.1403C62.3437 21.275 62.0871 20.4291 61.6064 19.7097C61.1257 18.9902 60.4424 18.4295 59.643 18.0984C58.8435 17.7672 57.9639 17.6806 57.1152 17.8494C56.2665 18.0182 55.487 18.4349 54.8751 19.0467V19.0468ZM55.8168 31.8035L53.0774 34.2385C52.3688 34.8684 51.4426 35.1974 50.4953 35.1556C49.5481 35.1139 48.6544 34.7046 48.004 34.0148C47.3535 33.3249 46.9974 32.4088 47.0114 31.4607C47.0253 30.5127 47.4081 29.6074 48.0785 28.9369L56.4219 20.5935C56.7278 20.2876 57.1176 20.0792 57.542 19.9948C57.9663 19.9104 58.4061 19.9537 58.8059 20.1193C59.2056 20.2849 59.5472 20.5653 59.7876 20.925C60.028 21.2847 60.1563 21.7077 60.1562 22.1404C60.1556 23.966 59.7686 25.7709 59.0207 27.4363C58.2728 29.1018 57.1809 30.5901 55.8168 31.8035V31.8035Z" fill="#59515A"/>
<path d="M37.0258 22.9068C37.4301 23.076 37.8639 23.1637 38.3022 23.1649C38.7306 23.1636 39.1544 23.0772 39.5491 22.9108C39.9438 22.7444 40.3015 22.5013 40.6015 22.1955L43.8828 18.9143C44.1884 18.6103 44.4308 18.2487 44.5957 17.8505C44.7607 17.4522 44.8451 17.0252 44.8439 16.5941V14.0313C44.8439 13.3823 44.6514 12.7479 44.2909 12.2083C43.9304 11.6687 43.4179 11.2482 42.8183 10.9998C42.2188 10.7515 41.559 10.6865 40.9225 10.8131C40.2861 10.9397 39.7014 11.2522 39.2425 11.7111L35.9613 14.9923C35.6556 15.2963 35.4133 15.6579 35.2483 16.0561C35.0833 16.4544 34.999 16.8814 35.0001 17.3125V19.8753C34.9933 20.5258 35.183 21.1633 35.5444 21.7042C35.9059 22.2451 36.4222 22.6642 37.0258 22.9068ZM37.1876 17.3125C37.1873 17.1688 37.2154 17.0265 37.2704 16.8937C37.3253 16.7609 37.4061 16.6404 37.508 16.5391L40.7893 13.2578C40.9422 13.1049 41.1371 13.0007 41.3493 12.9585C41.5615 12.9163 41.7814 12.938 41.9812 13.0208C42.1811 13.1035 42.3519 13.2437 42.4721 13.4236C42.5923 13.6035 42.6564 13.815 42.6564 14.0313V16.5941C42.6568 16.7378 42.6287 16.8801 42.5737 17.0129C42.5187 17.1457 42.4379 17.2662 42.336 17.3675L39.0548 20.6488C38.9018 20.8017 38.7069 20.9059 38.4948 20.9481C38.2826 20.9903 38.0627 20.9686 37.8628 20.8858C37.663 20.803 37.4922 20.6629 37.372 20.483C37.2518 20.3031 37.1876 20.0917 37.1876 19.8753V17.3125Z" fill="#59515A"/>
<path d="M27.3438 43.75C28.5519 43.75 29.5312 42.7706 29.5312 41.5625C29.5312 40.3544 28.5519 39.375 27.3438 39.375C26.1356 39.375 25.1562 40.3544 25.1562 41.5625C25.1562 42.7706 26.1356 43.75 27.3438 43.75Z" fill="#59515A"/>
</svg>
