<svg width="29" height="29" viewBox="0 0 29 29" fill="none" xmlns="http://www.w3.org/2000/svg">
<path d="M28.3695 10.7172H0.630454C0.282454 10.7172 0 10.9996 0 11.3476C0 11.6956 0.282454 11.9781 0.630454 11.9781H28.3695C28.7175 11.9781 29 11.6956 29 11.3476C29 10.9996 28.7175 10.7172 28.3695 10.7172Z" fill="white"/>
<path d="M28.3695 10.7172H0.630454C0.282454 10.7172 0 10.9996 0 11.3476C0 11.6956 0.282454 11.9781 0.630454 11.9781H28.3695C28.7175 11.9781 29 11.6956 29 11.3476C29 10.9996 28.7175 10.7172 28.3695 10.7172Z" fill="white"/>
<path d="M27.274 10.7401C26.9411 10.6493 26.5906 10.846 26.4998 11.1827L23.2241 23.1937C23.0009 24.0133 22.2507 24.5869 21.3996 24.5869H7.60067C6.74959 24.5869 5.99939 24.0132 5.77492 23.1937L2.49924 11.1827C2.40846 10.8448 2.06046 10.6493 1.72634 10.7389C1.38969 10.8309 1.19176 11.1776 1.28378 11.513L4.55952 23.5254C4.93275 24.8934 6.18226 25.8479 7.60073 25.8479H21.3997C22.8182 25.8479 24.0677 24.8934 24.4409 23.5254L27.7166 11.5143C27.8087 11.1789 27.6107 10.8322 27.274 10.7401Z" fill="white"/>
<path d="M27.274 10.7401C26.9411 10.6493 26.5906 10.846 26.4998 11.1827L23.2241 23.1937C23.0009 24.0133 22.2507 24.5869 21.3996 24.5869H7.60067C6.74959 24.5869 5.99939 24.0132 5.77492 23.1937L2.49924 11.1827C2.40846 10.8448 2.06046 10.6493 1.72634 10.7389C1.38969 10.8309 1.19176 11.1776 1.28378 11.513L4.55952 23.5254C4.93275 24.8934 6.18226 25.8479 7.60073 25.8479H21.3997C22.8182 25.8479 24.0677 24.8934 24.4409 23.5254L27.7166 11.5143C27.8087 11.1789 27.6107 10.8322 27.274 10.7401Z" fill="white"/>
<path d="M13.5885 3.25782C13.2972 3.06491 12.9064 3.14434 12.7147 3.43306L7.67123 10.9983C7.47831 11.2883 7.55651 11.6791 7.84647 11.8721C7.95492 11.9439 8.07596 11.978 8.19571 11.978C8.39873 11.978 8.59921 11.8796 8.72025 11.6968L13.7637 4.1316C13.9567 3.84164 13.8785 3.45073 13.5885 3.25782Z" fill="white"/>
<path d="M13.5885 3.25782C13.2972 3.06491 12.9064 3.14434 12.7147 3.43306L7.67123 10.9983C7.47831 11.2883 7.55651 11.6791 7.84647 11.8721C7.95492 11.9439 8.07596 11.978 8.19571 11.978C8.39873 11.978 8.59921 11.8796 8.72025 11.6968L13.7637 4.1316C13.9567 3.84164 13.8785 3.45073 13.5885 3.25782Z" fill="white"/>
<path d="M21.3277 10.9986L16.2842 3.4334C16.0913 3.14338 15.7005 3.06524 15.4104 3.25816C15.1204 3.45107 15.0423 3.84192 15.2352 4.13194L20.2787 11.6972C20.4009 11.88 20.6002 11.9783 20.8044 11.9783C20.9255 11.9783 21.0465 11.9443 21.1524 11.8724C21.4425 11.6795 21.5206 11.2886 21.3277 10.9986Z" fill="white"/>
<path d="M21.3277 10.9986L16.2842 3.4334C16.0913 3.14338 15.7005 3.06524 15.4104 3.25816C15.1204 3.45107 15.0423 3.84192 15.2352 4.13194L20.2787 11.6972C20.4009 11.88 20.6002 11.9783 20.8044 11.9783C20.9255 11.9783 21.0465 11.9443 21.1524 11.8724C21.4425 11.6795 21.5206 11.2886 21.3277 10.9986Z" fill="white"/>
<path d="M14.5001 13.2389C14.1521 13.2389 13.8696 13.5213 13.8696 13.8693V22.6954C13.8696 23.0434 14.1521 23.3259 14.5001 23.3259C14.8481 23.3259 15.1305 23.0434 15.1305 22.6954V13.8693C15.1305 13.5213 14.8481 13.2389 14.5001 13.2389Z" fill="white"/>
<path d="M14.5001 13.2389C14.1521 13.2389 13.8696 13.5213 13.8696 13.8693V22.6954C13.8696 23.0434 14.1521 23.3259 14.5001 23.3259C14.8481 23.3259 15.1305 23.0434 15.1305 22.6954V13.8693C15.1305 13.5213 14.8481 13.2389 14.5001 13.2389Z" fill="white"/>
<path d="M19.0024 13.2453C18.6594 13.1973 18.3379 13.4356 18.2887 13.7799L17.0279 22.6059C16.9787 22.9514 17.2183 23.2704 17.5625 23.3196C17.5927 23.3246 17.623 23.3259 17.652 23.3259C17.9622 23.3259 18.2308 23.099 18.2761 22.785L19.537 13.9589C19.5862 13.6134 19.3466 13.2944 19.0024 13.2453Z" fill="white"/>
<path d="M19.0024 13.2453C18.6594 13.1973 18.3379 13.4356 18.2887 13.7799L17.0279 22.6059C16.9787 22.9514 17.2183 23.2704 17.5625 23.3196C17.5927 23.3246 17.623 23.3259 17.652 23.3259C17.9622 23.3259 18.2308 23.099 18.2761 22.785L19.537 13.9589C19.5862 13.6134 19.3466 13.2944 19.0024 13.2453Z" fill="white"/>
<path d="M11.9716 22.6062L10.7107 13.7801C10.6615 13.4347 10.3438 13.1926 9.99704 13.2456C9.65283 13.2947 9.41328 13.615 9.46245 13.9592L10.7233 22.7853C10.7687 23.0992 11.0385 23.3262 11.3474 23.3262C11.3765 23.3262 11.4067 23.3237 11.437 23.3199C11.7812 23.2707 12.0207 22.9504 11.9716 22.6062Z" fill="white"/>
<path d="M11.9716 22.6062L10.7107 13.7801C10.6615 13.4347 10.3438 13.1926 9.99704 13.2456C9.65283 13.2947 9.41328 13.615 9.46245 13.9592L10.7233 22.7853C10.7687 23.0992 11.0385 23.3262 11.3474 23.3262C11.3765 23.3262 11.4067 23.3237 11.437 23.3199C11.7812 23.2707 12.0207 22.9504 11.9716 22.6062Z" fill="white"/>
<path d="M23.4974 13.2631C23.167 13.1711 22.8139 13.3615 22.7181 13.6969L20.1964 22.5229C20.1018 22.857 20.2947 23.2063 20.6301 23.3021C20.6881 23.3185 20.7462 23.3261 20.8041 23.3261C21.079 23.3261 21.3312 23.1458 21.4094 22.8684L23.9311 14.0423C24.0257 13.7082 23.8328 13.359 23.4974 13.2631Z" fill="white"/>
<path d="M23.4974 13.2631C23.167 13.1711 22.8139 13.3615 22.7181 13.6969L20.1964 22.5229C20.1018 22.857 20.2947 23.2063 20.6301 23.3021C20.6881 23.3185 20.7462 23.3261 20.8041 23.3261C21.079 23.3261 21.3312 23.1458 21.4094 22.8684L23.9311 14.0423C24.0257 13.7082 23.8328 13.359 23.4974 13.2631Z" fill="white"/>
<path d="M8.80314 22.523L6.28138 13.6969C6.18557 13.3615 5.83379 13.1724 5.50216 13.2632C5.16675 13.359 4.9726 13.7083 5.0684 14.0424L7.59016 22.8684C7.6696 23.1458 7.92179 23.3261 8.19538 23.3261C8.25212 23.3261 8.3101 23.3186 8.36938 23.3022C8.70479 23.2064 8.89901 22.8572 8.80314 22.523Z" fill="white"/>
<path d="M8.80314 22.523L6.28138 13.6969C6.18557 13.3615 5.83379 13.1724 5.50216 13.2632C5.16675 13.359 4.9726 13.7083 5.0684 14.0424L7.59016 22.8684C7.6696 23.1458 7.92179 23.3261 8.19538 23.3261C8.25212 23.3261 8.3101 23.3186 8.36938 23.3022C8.70479 23.2064 8.89901 22.8572 8.80314 22.523Z" fill="white"/>
</svg>
