<svg width="37" height="37" viewBox="0 0 37 37" fill="none" xmlns="http://www.w3.org/2000/svg">
<path d="M36.1956 13.6736H0.804372C0.360373 13.6736 0 14.034 0 14.478C0 14.922 0.360373 15.2824 0.804372 15.2824H36.1956C36.6396 15.2824 37 14.922 37 14.478C37 14.034 36.6396 13.6736 36.1956 13.6736Z" fill="white"/>
<path d="M36.1956 13.6736H0.804372C0.360373 13.6736 0 14.034 0 14.478C0 14.922 0.360373 15.2824 0.804372 15.2824H36.1956C36.6396 15.2824 37 14.922 37 14.478C37 14.034 36.6396 13.6736 36.1956 13.6736Z" fill="#59515A"/>
<path d="M34.7975 13.703C34.3728 13.5871 33.9256 13.8381 33.8097 14.2676L29.6304 29.592C29.3456 30.6377 28.3885 31.3696 27.3026 31.3696H9.69705C8.61118 31.3696 7.65403 30.6376 7.36763 29.592L3.18832 14.2676C3.0725 13.8365 2.6285 13.5871 2.20222 13.7014C1.7727 13.8188 1.52016 14.2612 1.63756 14.6891L5.81695 30.0152C6.29315 31.7607 7.88734 32.9784 9.69713 32.9784H27.3027C29.1125 32.9784 30.7067 31.7607 31.1829 30.0152L35.3622 14.6908C35.4797 14.2628 35.227 13.8204 34.7975 13.703Z" fill="white"/>
<path d="M34.7975 13.703C34.3728 13.5871 33.9256 13.8381 33.8097 14.2676L29.6304 29.592C29.3456 30.6377 28.3885 31.3696 27.3026 31.3696H9.69705C8.61118 31.3696 7.65403 30.6376 7.36763 29.592L3.18832 14.2676C3.0725 13.8365 2.6285 13.5871 2.20222 13.7014C1.7727 13.8188 1.52016 14.2612 1.63756 14.6891L5.81695 30.0152C6.29315 31.7607 7.88734 32.9784 9.69713 32.9784H27.3027C29.1125 32.9784 30.7067 31.7607 31.1829 30.0152L35.3622 14.6908C35.4797 14.2628 35.227 13.8204 34.7975 13.703Z" fill="#59515A"/>
<path d="M17.337 4.1566C16.9654 3.91047 16.4668 4.01182 16.2222 4.38019L9.78746 14.0324C9.54133 14.4024 9.6411 14.9011 10.011 15.1472C10.1494 15.2389 10.3039 15.2823 10.4566 15.2823C10.7157 15.2823 10.9714 15.1568 11.1259 14.9236L17.5606 5.27143C17.8068 4.90148 17.7071 4.40273 17.337 4.1566Z" fill="white"/>
<path d="M17.337 4.1566C16.9654 3.91047 16.4668 4.01182 16.2222 4.38019L9.78746 14.0324C9.54133 14.4024 9.6411 14.9011 10.011 15.1472C10.1494 15.2389 10.3039 15.2823 10.4566 15.2823C10.7157 15.2823 10.9714 15.1568 11.1259 14.9236L17.5606 5.27143C17.8068 4.90148 17.7071 4.40273 17.337 4.1566Z" fill="#59515A"/>
<path d="M27.211 14.0327L20.7763 4.3805C20.5302 4.01047 20.0315 3.91078 19.6615 4.15691C19.2914 4.40304 19.1917 4.90171 19.4379 5.27174L25.8726 14.9239C26.0286 15.1571 26.2828 15.2826 26.5435 15.2826C26.6979 15.2826 26.8523 15.2392 26.9875 15.1475C27.3575 14.9014 27.4572 14.4026 27.211 14.0327Z" fill="white"/>
<path d="M27.211 14.0327L20.7763 4.3805C20.5302 4.01047 20.0315 3.91078 19.6615 4.15691C19.2914 4.40304 19.1917 4.90171 19.4379 5.27174L25.8726 14.9239C26.0286 15.1571 26.2828 15.2826 26.5435 15.2826C26.6979 15.2826 26.8523 15.2392 26.9875 15.1475C27.3575 14.9014 27.4572 14.4026 27.211 14.0327Z" fill="#59515A"/>
<path d="M18.5002 16.891C18.0562 16.891 17.6958 17.2514 17.6958 17.6954V28.9562C17.6958 29.4002 18.0562 29.7606 18.5002 29.7606C18.9442 29.7606 19.3046 29.4002 19.3046 28.9562V17.6954C19.3046 17.2514 18.9442 16.891 18.5002 16.891Z" fill="white"/>
<path d="M18.5002 16.891C18.0562 16.891 17.6958 17.2514 17.6958 17.6954V28.9562C17.6958 29.4002 18.0562 29.7606 18.5002 29.7606C18.9442 29.7606 19.3046 29.4002 19.3046 28.9562V17.6954C19.3046 17.2514 18.9442 16.891 18.5002 16.891Z" fill="#59515A"/>
<path d="M24.2447 16.8992C23.8071 16.8381 23.3969 17.1421 23.3342 17.5813L21.7255 28.8421C21.6628 29.2829 21.9684 29.6899 22.4076 29.7527C22.4462 29.7591 22.4848 29.7608 22.5218 29.7608C22.9175 29.7608 23.2602 29.4712 23.3181 29.0706L24.9268 17.8097C24.9895 17.369 24.6839 16.962 24.2447 16.8992Z" fill="white"/>
<path d="M24.2447 16.8992C23.8071 16.8381 23.3969 17.1421 23.3342 17.5813L21.7255 28.8421C21.6628 29.2829 21.9684 29.6899 22.4076 29.7527C22.4462 29.7591 22.4848 29.7608 22.5218 29.7608C22.9175 29.7608 23.2602 29.4712 23.3181 29.0706L24.9268 17.8097C24.9895 17.369 24.6839 16.962 24.2447 16.8992Z" fill="#59515A"/>
<path d="M15.2744 28.8424L13.6658 17.5815C13.603 17.1408 13.1976 16.8319 12.7552 16.8995C12.3161 16.9622 12.0104 17.3709 12.0732 17.81L13.6818 29.0709C13.7398 29.4714 14.084 29.761 14.4781 29.761C14.5152 29.761 14.5538 29.7577 14.5924 29.7529C15.0316 29.6902 15.3372 29.2816 15.2744 28.8424Z" fill="white"/>
<path d="M15.2744 28.8424L13.6658 17.5815C13.603 17.1408 13.1976 16.8319 12.7552 16.8995C12.3161 16.9622 12.0104 17.3709 12.0732 17.81L13.6818 29.0709C13.7398 29.4714 14.084 29.761 14.4781 29.761C14.5152 29.761 14.5538 29.7577 14.5924 29.7529C15.0316 29.6902 15.3372 29.2816 15.2744 28.8424Z" fill="#59515A"/>
<path d="M29.9795 16.922C29.5581 16.8045 29.1076 17.0474 28.9854 17.4754L25.7679 28.7362C25.6473 29.1625 25.8934 29.6081 26.3214 29.7304C26.3953 29.7513 26.4694 29.7609 26.5434 29.7609C26.8941 29.7609 27.2158 29.5308 27.3155 29.177L30.533 17.9161C30.6536 17.4899 30.4075 17.0443 29.9795 16.922Z" fill="white"/>
<path d="M29.9795 16.922C29.5581 16.8045 29.1076 17.0474 28.9854 17.4754L25.7679 28.7362C25.6473 29.1625 25.8934 29.6081 26.3214 29.7304C26.3953 29.7513 26.4694 29.7609 26.5434 29.7609C26.8941 29.7609 27.2158 29.5308 27.3155 29.177L30.533 17.9161C30.6536 17.4899 30.4075 17.0443 29.9795 16.922Z" fill="#59515A"/>
<path d="M11.2317 28.7362L8.01428 17.4754C7.89205 17.0474 7.44322 16.8061 7.02011 16.922C6.59217 17.0442 6.34446 17.4898 6.46669 17.9161L9.68411 29.177C9.78546 29.5308 10.1072 29.7609 10.4563 29.7609C10.5287 29.7609 10.6026 29.7513 10.6783 29.7304C11.1062 29.6081 11.354 29.1626 11.2317 28.7362Z" fill="white"/>
<path d="M11.2317 28.7362L8.01428 17.4754C7.89205 17.0474 7.44322 16.8061 7.02011 16.922C6.59217 17.0442 6.34446 17.4898 6.46669 17.9161L9.68411 29.177C9.78546 29.5308 10.1072 29.7609 10.4563 29.7609C10.5287 29.7609 10.6026 29.7513 10.6783 29.7304C11.1062 29.6081 11.354 29.1626 11.2317 28.7362Z" fill="#59515A"/>
</svg>
