<svg width="54" height="50" viewBox="0 0 54 50" fill="none" xmlns="http://www.w3.org/2000/svg">
<path d="M50.4141 9.22954H48.3026L48.3047 5.45491C48.3059 2.92078 46.2456 0.857956 43.711 0.85672L27.6864 0.847656C27.6855 0.847656 27.6851 0.847656 27.6843 0.847656C26.7722 0.847656 25.9144 1.20279 25.2692 1.84796L1.34596 25.7712C0.477905 26.6393 0 27.7933 0 29.021C0 30.2487 0.477905 31.4027 1.34596 32.2708L16.8713 47.7961C17.7674 48.6922 18.9444 49.14 20.121 49.14C21.2981 49.14 22.4751 48.6922 23.3712 47.7961L38.4335 32.7338C38.8455 32.3218 38.8455 31.654 38.4335 31.2424C38.0215 30.8304 37.3537 30.8304 36.9417 31.2424L21.8794 46.3047C20.91 47.2741 19.3325 47.2741 18.3631 46.3047L2.83777 30.7794C2.3681 30.3097 2.10938 29.6851 2.10938 29.021C2.10938 28.3569 2.3681 27.7323 2.83777 27.2626L26.7606 3.33977C27.0074 3.09299 27.3354 2.95703 27.6843 2.95703L43.7098 2.96609C45.0809 2.96651 46.1961 4.08299 46.1953 5.45409L46.1904 14.292H41.4397C41.0306 14.292 40.6603 14.1248 40.3925 13.8553C40.8337 13.6662 41.2473 13.3931 41.607 13.0334C43.1227 11.5173 43.1227 9.05115 41.607 7.53545C40.0909 6.01933 37.6247 6.01933 36.1086 7.53545C34.5929 9.05115 34.5929 11.5173 36.1086 13.0334C36.6706 13.5954 37.3635 13.9484 38.0899 14.0939C38.6061 15.4415 39.9125 16.4014 41.4397 16.4014H46.1891L46.1862 21.4573C46.1862 21.8063 46.0503 22.1338 45.8035 22.3802L42.9081 25.276C42.4961 25.688 42.4961 26.3559 42.9081 26.7678C43.3196 27.1794 43.9875 27.1794 44.3995 26.7678L47.2953 23.872C47.9397 23.2272 48.2952 22.3703 48.2956 21.4586L48.2985 16.4014H50.4141C52.3912 16.4014 54 14.793 54 12.8155C54 10.8383 52.3912 9.22954 50.4141 9.22954ZM37.6004 9.02684C37.9473 8.67995 38.4026 8.50691 38.8582 8.50691C39.3135 8.50691 39.7687 8.68036 40.1156 9.02684C40.2252 9.13684 40.3158 9.25838 40.3908 9.38651C39.2331 9.74123 38.3235 10.6678 37.991 11.8354C37.8513 11.7575 37.7191 11.6607 37.6004 11.542C36.9071 10.8482 36.9071 9.72021 37.6004 9.02684ZM50.4141 14.292H48.2997L48.3014 11.3389H50.4141C51.2281 11.3389 51.8906 12.0014 51.8906 12.8155C51.8906 13.6296 51.2281 14.292 50.4141 14.292Z" fill="#59515A"/>
<path d="M17.0242 27.458C17.154 27.9248 17.578 28.2301 18.0394 28.2301C18.1333 28.2301 18.2285 28.2177 18.3228 28.1914L29.1498 25.1777C29.711 25.0215 30.0393 24.4398 29.8832 23.8787C29.727 23.318 29.1457 22.9896 28.5842 23.1457L17.7572 26.159C17.1965 26.3156 16.8681 26.8969 17.0242 27.458Z" fill="#59515A"/>
<path d="M21.79 28.8496C21.2025 29.4371 20.8791 30.2178 20.8791 31.0488C20.8791 31.8794 21.2025 32.6601 21.79 33.2476C22.3964 33.8536 23.1924 34.1568 23.9888 34.1568C24.7851 34.1568 25.5815 33.8536 26.188 33.2476C27.4004 32.0351 27.4004 30.0621 26.188 28.8496C24.9755 27.6371 23.0025 27.6371 21.79 28.8496ZM24.6961 31.7558C24.306 32.1459 23.6715 32.1459 23.2814 31.7558C23.0923 31.5671 22.9885 31.3158 22.9885 31.0484C22.9885 30.7814 23.0927 30.5301 23.2814 30.341C23.4767 30.1461 23.7329 30.0485 23.9888 30.0485C24.245 30.0485 24.5013 30.1461 24.6961 30.341C25.0863 30.7311 25.0863 31.366 24.6961 31.7558Z" fill="#59515A"/>
<path d="M26.7104 22.5701C27.9228 21.3572 27.9228 19.3846 26.7104 18.1721C26.1229 17.5846 25.3417 17.2612 24.5112 17.2612C23.6806 17.2612 22.8995 17.5846 22.3124 18.1721C21.0999 19.3846 21.0999 21.3572 22.3124 22.5701C22.9188 23.1761 23.7148 23.4794 24.5112 23.4794C25.3075 23.4794 26.1039 23.1761 26.7104 22.5701ZM23.8038 19.6635C23.9929 19.4744 24.2442 19.3706 24.5112 19.3706C24.7786 19.3706 25.0299 19.4744 25.2186 19.6635C25.6087 20.0537 25.6087 20.6881 25.2186 21.0783C24.8288 21.4684 24.1939 21.4684 23.8038 21.0783C23.4141 20.6881 23.4141 20.0537 23.8038 19.6635Z" fill="#59515A"/>
<path d="M10.49 25.2785C10.0781 24.8665 9.41022 24.8665 8.99824 25.2785L6.00144 28.2753C5.80369 28.473 5.69245 28.7412 5.69245 29.021C5.69245 29.3007 5.80369 29.5689 6.00144 29.7667L19.3758 43.141C19.5814 43.3466 19.8516 43.4496 20.1215 43.4496C20.3913 43.4496 20.6612 43.3466 20.8672 43.141L40.8634 23.1444C41.2754 22.7324 41.2754 22.0646 40.8634 21.6526L27.4895 8.27865C27.2917 8.0809 27.0235 7.96966 26.7438 7.96966C26.464 7.96966 26.1958 8.0809 25.9981 8.27865L14.9646 19.3121C14.5526 19.7241 14.5526 20.3919 14.9646 20.8039C15.3762 21.2155 16.044 21.2155 16.456 20.8039L26.7438 10.5162L38.6263 22.3987L20.1215 40.9035L8.23894 29.021L10.49 26.7699C10.9016 26.3579 10.902 25.6905 10.49 25.2785Z" fill="#59515A"/>
<path d="M40.671 27.9503C40.3933 27.9503 40.1214 28.0631 39.9253 28.2593C39.7292 28.4554 39.6163 28.7277 39.6163 29.0049C39.6163 29.2822 39.7292 29.5545 39.9253 29.7506C40.1214 29.9468 40.3933 30.0596 40.671 30.0596C40.9482 30.0596 41.2202 29.9468 41.4167 29.7506C41.6128 29.5545 41.7257 29.2822 41.7257 29.0049C41.7257 28.7277 41.6128 28.4554 41.4167 28.2593C41.2202 28.0631 40.9482 27.9503 40.671 27.9503Z" fill="#59515A"/>
<path d="M13.4724 23.7863C13.6698 23.5902 13.7818 23.3191 13.7818 23.0406C13.7818 22.7633 13.6698 22.4922 13.4724 22.2949C13.2763 22.0988 13.0052 21.9859 12.7271 21.9859C12.4494 21.9859 12.1775 22.0988 11.9814 22.2949C11.7849 22.491 11.6724 22.7633 11.6724 23.0406C11.6724 23.3191 11.7849 23.5902 11.9814 23.7863C12.1784 23.9836 12.4494 24.0953 12.7271 24.0953C13.0052 24.0953 13.2763 23.9836 13.4724 23.7863Z" fill="#59515A"/>
</svg>
