<svg width="53" height="67" viewBox="0 0 53 67" fill="none" xmlns="http://www.w3.org/2000/svg">
<path d="M52.7474 42.9112C52.7469 42.9015 52.7469 42.8918 52.7459 42.8826C52.6564 41.026 52.3461 39.2272 51.8401 37.5107C51.8283 37.4468 51.8094 37.3839 51.7843 37.3221C49.7075 30.4949 44.5344 25.0034 37.9076 22.49L40.9567 14.0281C42.4069 13.4479 43.5964 12.2476 44.1015 10.6456C44.994 7.81223 43.4155 4.78099 40.5821 3.88798C37.7486 2.99547 34.7169 4.57397 33.8244 7.40738C33.3919 8.77987 33.5197 10.2388 34.1843 11.5151C34.2691 11.6777 34.3611 11.8346 34.4603 11.9859L31.9878 21.1108C31.2599 21.0408 30.5222 21.004 29.7759 21.004C29.4324 21.004 29.091 21.0127 28.7515 21.028L28.5348 17.9109C28.497 17.3696 28.0262 16.9627 27.4869 16.999C26.9456 17.0368 26.5372 17.5061 26.575 18.0469L26.7938 21.1972C26.1568 21.28 25.5281 21.3899 24.9081 21.5238L23.2672 10.7147C23.5325 10.755 23.8019 10.7765 24.0738 10.7765C24.2732 10.7765 24.4746 10.7653 24.6755 10.7433C25.1509 10.6906 25.6099 10.5766 26.0439 10.4074L26.1574 12.0406C26.1952 12.582 26.6649 12.9894 27.2053 12.9526C27.7466 12.9147 28.155 12.4455 28.1172 11.9041L27.927 9.16478C28.0533 9.03546 28.1744 8.89949 28.2889 8.75636C29.1886 7.63332 29.597 6.22709 29.4391 4.79684C29.2811 3.36607 28.5757 2.08304 27.4527 1.18338C26.3296 0.283718 24.9229 -0.124196 23.4926 0.0332448C22.0624 0.191196 20.7793 0.896611 19.8797 2.01965C18.9795 3.14269 18.5711 4.54892 18.7295 5.97968C18.8875 7.40994 19.5929 8.69297 20.716 9.59314C20.8591 9.70714 21.0068 9.81295 21.1586 9.91109L22.9968 22.0238C13.6143 24.9242 6.77788 33.6795 6.77788 44.002C6.77788 45.855 6.99871 47.6569 7.4148 49.3836C7.42451 49.4516 7.44087 49.517 7.46387 49.5799C7.78898 50.8783 8.22296 52.1337 8.75867 53.335H4.93614C2.46719 53.335 0.458801 55.3434 0.458801 57.8123V58.002C0.458801 60.4709 2.46719 62.4793 4.93614 62.4793H9.95429C10.5958 62.4793 11.1177 63.0017 11.1177 63.6432C11.1177 64.2847 10.5958 64.8066 9.95429 64.8066H6.13994C5.59759 64.8066 5.15799 65.2463 5.15799 65.7891C5.15799 66.3315 5.59759 66.7716 6.13994 66.7716H9.95429C11.679 66.7716 13.0821 65.3679 13.0821 63.6432C13.0821 61.918 11.679 60.5149 9.95429 60.5149H4.93614C3.55036 60.5149 2.42323 59.3877 2.42323 58.002V57.8123C2.42323 56.4265 3.55036 55.2994 4.93614 55.2994H9.75034C10.5764 56.7583 11.5594 58.1165 12.6722 59.3555C12.7325 59.4501 12.8082 59.5334 12.8961 59.6024C14.7419 61.5985 16.9353 63.268 19.3803 64.5122C19.4559 64.5644 19.5398 64.6052 19.6287 64.6344C22.6911 66.1469 26.1354 67.0001 29.7759 67.0001C38.1111 67.0001 45.4249 62.5422 49.4585 55.8862C49.5127 55.8177 49.5562 55.7426 49.5904 55.6639C50.8387 53.5502 51.7593 51.2213 52.2807 48.7467C52.2863 48.7258 52.2899 48.7043 52.2945 48.6833C52.6084 47.1713 52.774 45.6056 52.774 44.002C52.774 43.636 52.7643 43.2726 52.7474 42.9112ZM20.6822 5.76397C20.5815 4.85511 20.8412 3.96159 21.4127 3.24799C21.9847 2.5344 22.8 2.0861 23.7083 1.98591C23.8366 1.9716 23.9644 1.96444 24.0912 1.96444C24.8656 1.96444 25.6114 2.22514 26.2243 2.71638C26.9379 3.28837 27.3862 4.10318 27.4869 5.01204C27.5871 5.9209 27.3274 6.81442 26.7559 7.52802C26.1844 8.24161 25.3691 8.68991 24.4603 8.7901C23.5509 8.8908 22.6579 8.63112 21.9443 8.05964C21.2307 7.48815 20.7824 6.67283 20.6822 5.76397ZM46.6982 31.5259C47.9792 33.2583 49.001 35.1925 49.7054 37.2725C47.033 38.9578 44.311 40.384 41.6116 41.5903C42.7433 38.6312 44.4025 34.9962 46.6982 31.5259ZM45.3988 29.9377C42.341 34.4212 40.3311 39.2134 39.137 42.6408C37.4215 43.3293 35.7249 43.933 34.0657 44.4626C35.3543 40.3906 38.0952 33.2971 42.8936 27.5756C43.7917 28.2938 44.6295 29.0841 45.3988 29.9377ZM38.8635 25.0351C39.7095 25.442 40.5233 25.9056 41.3023 26.4178C35.9611 32.8253 33.1113 40.639 31.8048 45.146C30.3909 45.5499 29.0122 45.9015 27.6822 46.2067C28.6692 42.49 31.8988 32.1725 38.8635 25.0351ZM35.6983 7.99778C36.1579 6.53839 37.5104 5.60295 38.9652 5.60295C39.3052 5.60295 39.6507 5.65407 39.9917 5.76142C41.792 6.32881 42.7949 8.2549 42.2275 10.0552C41.6606 11.8551 39.7345 12.8585 37.9342 12.2911C37.0621 12.0161 36.3491 11.4185 35.9268 10.6073C35.5046 9.79659 35.4233 8.86984 35.6983 7.99778ZM36.0669 13.57C36.46 13.82 36.8873 14.0209 37.3438 14.165C37.8044 14.3097 38.2705 14.3895 38.7316 14.4089L36.0424 21.872C35.3569 21.6772 34.6586 21.5152 33.9491 21.3843L36.0669 13.57ZM33.4533 23.291C34.6489 23.5026 35.8098 23.8159 36.9267 24.2208C32.6007 28.8704 29.7698 34.5725 28.1218 38.6746C27.0212 41.415 26.3036 43.7674 25.8849 45.306C25.0103 44.3486 24.2405 43.3789 23.5621 42.4128C24.6699 38.5172 27.6259 29.8651 33.4533 23.291ZM26.5658 23.2128C27.6127 23.0522 28.6846 22.9684 29.7759 22.9684C30.2242 22.9684 30.6689 22.9843 31.1101 23.0119C26.2903 28.8832 23.5192 35.9705 22.1687 40.2276C21.2941 38.7053 20.6301 37.2265 20.1271 35.8601C21.3426 32.4399 23.4129 27.6098 26.5658 23.2128ZM18.4372 26.2936C20.0724 25.2426 21.863 24.413 23.7651 23.8451C21.7812 26.9284 20.2799 30.0926 19.1916 32.7895C18.4259 29.6346 18.4101 27.1799 18.4372 26.2936ZM16.4835 27.7141C16.5382 29.038 16.7273 30.956 17.2742 33.221C17.4869 34.1017 17.766 35.0745 18.1305 36.1121C18.1453 36.1704 18.1657 36.2271 18.1913 36.2813C18.935 38.3597 20.0238 40.6886 21.6171 43.0528C21.6539 43.1244 21.6989 43.1913 21.7521 43.2516C22.5746 44.4514 23.5299 45.6577 24.6346 46.8441C23.372 47.0839 22.1687 47.2822 21.039 47.4453C15.2848 41.4344 13.6807 34.7325 13.2493 31.0071C14.2047 29.7951 15.2889 28.6899 16.4835 27.7141ZM11.6304 33.3763C12.3716 37.2285 14.1996 42.6546 18.6575 47.753C17.5232 47.8844 16.3863 47.9917 15.2567 48.0756C12.6931 45.1787 10.7727 41.8776 9.5428 38.2519C10.034 36.5267 10.7395 34.8909 11.6304 33.3763ZM8.74231 44.002C8.74231 43.2685 8.78218 42.5442 8.85579 41.8296C9.90113 44.1078 11.2225 46.2445 12.8087 48.2202C11.2787 48.2846 10.0468 48.2897 9.17987 48.2775C8.8931 46.8968 8.74231 45.4665 8.74231 44.002ZM29.7759 65.0357C27.7849 65.0357 25.8588 64.755 24.0319 64.2357C30.1281 63.4076 37.7497 61.6599 45.4131 58.0536C41.5599 62.3372 35.9774 65.0357 29.7759 65.0357ZM47.9669 54.5505C37.811 60.1254 27.2968 62.0622 20.1429 62.696C18.6038 61.9001 17.1761 60.9192 15.8869 59.7834C18.958 59.6883 23.4977 59.3407 28.7827 58.2831C36.4953 56.7389 43.5371 54.1518 49.7535 50.5839C49.2939 51.9758 48.6928 53.3038 47.9669 54.5505ZM50.4497 47.8813C35.705 57.0088 19.3307 57.8476 13.9583 57.8501C13.2575 57.0507 12.616 56.1986 12.0409 55.2994H12.6482C12.733 55.2994 12.8148 55.2871 12.893 55.2672C17.3811 55.1599 25.1422 54.5429 33.9691 51.9656C34.4899 51.8132 34.7885 51.2683 34.6366 50.7474C34.4848 50.2266 33.9394 49.9275 33.4185 50.0798C23.3413 53.0216 14.7005 53.3483 10.9235 53.3207C10.4358 52.3372 10.0238 51.3097 9.69206 50.247C9.77641 50.247 9.86279 50.2475 9.95174 50.2475C11.1842 50.2475 12.8685 50.2102 14.9019 50.0732C14.9065 50.0727 14.9111 50.0727 14.9157 50.0722C16.8525 49.9398 18.817 49.7374 20.7538 49.4705C24.172 48.9997 28.2946 48.2161 32.7479 46.9183C32.824 46.9065 32.8971 46.8835 32.9677 46.8549C35.3022 46.1668 37.7256 45.3362 40.1849 44.3358C40.2564 44.3154 40.3249 44.2868 40.3904 44.2505C43.6624 42.9076 46.9947 41.2611 50.2636 39.242C50.5049 40.2792 50.671 41.345 50.7518 42.4343C47.1557 44.6686 43.2396 46.5993 39.1007 48.1747C38.5936 48.3679 38.339 48.9353 38.5323 49.4424C38.6815 49.8345 39.0542 50.0752 39.4503 50.0752C39.5664 50.0752 39.6844 50.0548 39.7995 50.0108C43.6787 48.5341 47.3704 46.7537 50.7968 44.7085C50.7605 45.7886 50.6429 46.8477 50.4497 47.8813Z" fill="#59515A"/>
</svg>
